<svg width="1571" height="405" viewBox="0 0 1571 405" fill="none" xmlns="http://www.w3.org/2000/svg">
<path d="M463.438 241.141C463.438 212.547 487.109 204.109 510.781 202.703C519.57 202.117 537.852 201.062 543.359 200.828V190.75C543.359 178.094 535.156 170.828 520.391 170.828C507.031 170.828 498.828 176.922 496.484 186.062H467.656C469.766 164.5 489.219 148.094 521.094 148.094C545.234 148.094 573.125 157.937 573.125 191.922V277H544.531V259.422H543.594C537.969 270.203 526.016 279.578 506.094 279.578C481.719 279.578 463.438 266.219 463.438 241.141ZM492.266 240.906C492.266 251.922 501.172 257.547 513.828 257.547C531.875 257.547 543.594 245.594 543.594 231.297V220.75L515.469 222.625C501.172 223.797 492.266 229.656 492.266 240.906Z" fill="white"/>
<path d="M601.25 277V107.312H631.25V200.828H633.359L679.062 149.734H713.984L664.766 204.578L717.031 277H681.406L642.266 222.391L631.25 234.109V277H601.25Z" fill="white"/>
<path d="M725.938 241.141C725.938 212.547 749.609 204.109 773.281 202.703C782.07 202.117 800.352 201.062 805.859 200.828V190.75C805.859 178.094 797.656 170.828 782.891 170.828C769.531 170.828 761.328 176.922 758.984 186.062H730.156C732.266 164.5 751.719 148.094 783.594 148.094C807.734 148.094 835.625 157.937 835.625 191.922V277H807.031V259.422H806.094C800.469 270.203 788.516 279.578 768.594 279.578C744.219 279.578 725.938 266.219 725.938 241.141ZM754.766 240.906C754.766 251.922 763.672 257.547 776.328 257.547C794.375 257.547 806.094 245.594 806.094 231.297V220.75L777.969 222.625C763.672 223.797 754.766 229.656 754.766 240.906Z" fill="white"/>
<path d="M882.266 278.875C872.188 278.875 863.984 270.672 863.984 260.594C863.984 250.75 872.188 242.547 882.266 242.547C891.875 242.547 900.312 250.75 900.312 260.594C900.312 270.672 891.875 278.875 882.266 278.875Z" fill="white"/>
<path d="M929.141 324.812V149.734H958.438V170.594H960.312C965 161.453 974.375 148.094 996.875 148.094C1026.17 148.094 1049.38 171.062 1049.38 213.484C1049.38 255.437 1026.88 279.344 996.875 279.344C974.844 279.344 965 266.219 960.312 256.844H959.141V324.812H929.141ZM958.438 213.25C958.438 238.094 969.219 254.734 988.672 254.734C1008.36 254.734 1018.91 237.391 1018.91 213.25C1018.91 189.578 1008.59 172.469 988.672 172.469C969.219 172.469 958.438 188.641 958.438 213.25Z" fill="white"/>
<path d="M1136.33 149.734V172.703H1111.25V238.797C1111.25 250.984 1117.34 253.562 1124.84 253.562C1128.36 253.562 1134.22 253.328 1137.97 253.094V277.469C1134.45 278.172 1128.59 278.641 1121.09 278.641C1098.59 278.641 1081.25 267.625 1081.48 243.719V172.703H1063.2V149.734H1081.48V119.266H1111.25V149.734H1136.33Z" fill="white"/>
<path d="M1213.44 327.391C1179.69 327.391 1158.36 312.391 1156.25 288.484H1186.02C1188.12 299.5 1198.67 304.891 1213.91 304.891C1231.72 304.891 1243.44 297.156 1243.44 278.406V254.031H1242.03C1237.34 263.406 1227.27 275.125 1205.23 275.125C1175.94 275.125 1152.73 253.797 1152.73 212.312C1152.73 170.359 1175.94 148.094 1205.47 148.094C1227.97 148.094 1237.34 161.453 1242.03 170.594H1243.44V149.734H1272.97V279.109C1272.97 311.687 1247.89 327.391 1213.44 327.391ZM1213.44 251.687C1232.66 251.687 1243.67 237.156 1243.67 212.781C1243.67 188.641 1232.89 172.469 1213.44 172.469C1193.52 172.469 1183.2 189.578 1183.2 212.781C1183.2 236.219 1193.75 251.687 1213.44 251.687Z" fill="white"/>
<path d="M1320.08 278.875C1310 278.875 1301.8 270.672 1301.8 260.594C1301.8 250.75 1310 242.547 1320.08 242.547C1329.69 242.547 1338.12 250.75 1338.12 260.594C1338.12 270.672 1329.69 278.875 1320.08 278.875Z" fill="white"/>
<path d="M1366.95 277V107.312H1396.95V200.828H1399.06L1444.77 149.734H1479.69L1430.47 204.578L1482.73 277H1447.11L1407.97 222.391L1396.95 234.109V277H1366.95Z" fill="white"/>
<path d="M1497.5 277V149.734H1526.56V170.828H1527.97C1532.42 156.297 1544.84 147.859 1559.38 147.859C1562.66 147.859 1567.34 148.094 1570.16 148.562V176.219C1567.58 175.281 1561.25 174.344 1556.33 174.344C1539.69 174.344 1527.5 185.828 1527.5 202V277H1497.5Z" fill="white"/>
<path d="M404.637 202.331C404.637 206.558 404.494 210.785 404.21 214.988C403.069 233.464 399.461 251.251 393.69 268.041C367.732 343.701 298.153 399.104 214.964 404.21C210.785 404.518 206.557 404.638 202.306 404.638C198.056 404.638 193.853 404.518 189.65 404.21C87.9862 397.964 6.67251 316.653 0.427938 214.988C0.119924 210.785 0 206.558 0 202.331C0 198.08 0.119965 193.853 0.427938 189.673C6.67251 88.0339 87.9862 6.67352 189.65 0.427938C193.853 0.143298 198.056 0 202.306 0C206.557 0 210.785 0.143298 214.964 0.427938V54.8105H189.65V32.9388C106.033 39.0898 39.0898 106.081 32.9154 189.673H52.4593V214.988H32.9154C39.0898 298.604 106.033 365.549 189.65 371.723V349.424H214.964V371.723C276.732 367.163 329.452 329.405 355.242 276.258C364.361 257.497 370.107 236.812 371.699 214.988H371.651L383.478 189.673H404.21C404.495 193.853 404.637 198.08 404.637 202.331Z" fill="#2F855A"/>
<path d="M409.08 137.56L386.276 126.556L316.575 271.309L316.499 271.423H266.527L266.489 271.347L266.527 271.233L291.266 219.896L291.532 219.328L317.143 166.169L326.97 145.831L330.005 139.494L345.639 106.978L337.936 103.296L325.149 97.1117L391.777 66.1125L409.08 137.56Z" fill="#2F855A"/>
<path d="M153.307 214.741V214.765L128.281 266.768L69.9052 145.495H119.956L153.307 214.741Z" fill="#2F855A"/>
<path d="M218.697 202.466L185.495 271.416V271.441H135.395V271.416L186.112 166.15L193.648 150.464L218.697 202.466Z" fill="#2F855A"/>
<path d="M284.577 216.145L279.531 226.617L259.8 267.405L259.763 267.519L213.851 172.168L201.027 145.494H250.504L284.577 216.145Z" fill="#2F855A"/>
</svg>
